<svg width="22" height="16" viewBox="0 0 22 16" xmlns="http://www.w3.org/2000/svg">
  <g clip-path="url(#clip0_3_32)">
    <path d="M11.0186 6.91333C10.952 6.90666 10.872 6.90666 10.7986 6.91333C9.21158 6.86 7.95129 5.56 7.95129 3.96C7.95129 2.32666 9.2716 1 10.912 1C12.5457 1 13.8726 2.32666 13.8726 3.96C13.866 5.56 12.6057 6.86 11.0186 6.91333Z" 
          fill="none" 
          stroke="currentColor" 
          stroke-width="1.2" 
          stroke-linecap="round" 
          stroke-linejoin="round"/>
    <path d="M7.57454 9.82833C5.96083 10.9083 5.96083 12.6683 7.57454 13.7417C9.40829 14.9683 12.4156 14.9683 14.2494 13.7417C15.8631 12.6617 15.8631 10.9017 14.2494 9.82833C12.4223 8.60833 9.41496 8.60833 7.57454 9.82833Z" 
          fill="currentColor" 
          stroke="currentColor" 
          stroke-width="1.2" 
          stroke-linecap="round" 
          stroke-linejoin="round"/>
  </g>
  <defs>
    <clipPath id="clip0_3_32">
      <rect width="21.0954" height="15.6617" fill="white" transform="translate(0.364258)"/>
    </clipPath>
  </defs>
</svg>
