<?xml version="1.0" standalone="no"?>
<!DOCTYPE svg PUBLIC "-//W3C//DTD SVG 20010904//EN"
 "http://www.w3.org/TR/2001/REC-SVG-20010904/DTD/svg10.dtd">
<svg version="1.0" xmlns="http://www.w3.org/2000/svg"
 width="3000.000000pt" height="3000.000000pt" viewBox="0 0 3000.000000 3000.000000"
 preserveAspectRatio="xMidYMid meet">

<g transform="translate(0.000000,3000.000000) scale(0.100000,-0.100000)"
   fill="currentColor" stroke="none">
<path d="M14405 29989 c-2672 -103 -5237 -893 -7430 -2287 -1969 -1252 -3638
-2967 -4842 -4977 -1220 -2037 -1938 -4329 -2098 -6695 -165 -2456 259 -4874
1249 -7115 120 -270 408 -854 549 -1110 575 -1047 1244 -1986 2057 -2890 186
-205 686 -712 905 -915 1068 -991 2276 -1827 3518 -2435 2164 -1059 4530
-1596 6877 -1562 507 8 769 22 1240 68 1803 174 3596 697 5290 1544 1272 636
2370 1387 3425 2344 220 200 747 727 948 949 665 733 1241 1501 1734 2312
1631 2685 2367 5781 2128 8945 -345 4553 -2768 8721 -6569 11300 -785 533
-1588 970 -2461 1341 -1563 662 -3225 1053 -4950 1164 -455 29 -1109 37 -1570
19z m215 -1507 c0 -25 -1679 -12224 -1684 -12238 -2 -6 -1110 -870 -2463
-1921 -1352 -1050 -3560 -2770 -4907 -3821 -1347 -1051 -2452 -1909 -2456
-1907 -11 7 -281 553 -370 750 -977 2148 -1382 4442 -1195 6765 160 1970 749
3863 1743 5595 1340 2335 3411 4275 5827 5456 1609 786 3355 1230 5225 1328
268 14 280 14 280 -7z m1285 -8 c3242 -215 6239 -1564 8574 -3859 2134 -2098
3523 -4888 3905 -7845 300 -2314 14 -4655 -824 -6755 -169 -422 -438 -1001
-620 -1333 l-51 -93 -37 28 c-20 15 -1130 887 -2467 1938 -1336 1051 -3512
2749 -4835 3774 -1323 1025 -2407 1865 -2409 1867 -2 2 -390 2758 -862 6126
-472 3368 -861 6136 -864 6152 l-5 28 138 -6 c75 -4 236 -14 357 -22z m2664
-17388 c2973 -1199 7883 -3195 7899 -3211 5 -5 -53 -100 -195 -319 -340 -521
-767 -1074 -1209 -1566 -184 -206 -749 -771 -949 -951 -1258 -1129 -2649
-1992 -4195 -2604 -3152 -1246 -6695 -1246 -9855 0 -823 325 -1592 722 -2425
1253 -1228 782 -2341 1801 -3264 2985 -334 429 -824 1144 -800 1166 25 24
11389 4680 11423 4681 7 0 1614 -645 3570 -1434z"/>
</g>
</svg>
